<svg xmlns="http://www.w3.org/2000/svg" viewBox="0 0 64 64" role="img" aria-label="Pollinate">
  <defs>
    <style>
      .stroke { stroke: #d1ff48; stroke-width: 3; stroke-linecap: round; stroke-linejoin: round; }
      .fill { fill: #d1ff48; }
    </style>
  </defs>
  <g class="stroke" fill="none">
    <path d="M18 40c0-9 7-16 16-16s16 7 16 16"/>
    <path d="M20 40c6 4 12 6 18 6s12-2 18-6"/>
    <path d="M26 26c-4-6 2-13 9-12 2 0 4 1 6 2"/>
    <path d="M44 22c6-2 11 3 10 9-1 3-3 5-6 6"/>
  </g>
  <circle class="fill" cx="18" cy="34" r="2"/>
  <circle class="fill" cx="46" cy="34" r="2"/>
  <path class="fill" d="M34 18c3-6 10-8 16-5-3 2-5 5-6 8-3-1-7-1-10-3z"/>
</svg>
